trial_5_IK.mot
nRows=11
nColumns=42

name trial_5_IK.mot
datacolumns 42
datarows 11
range 7.2100000000 7.3100000000
endheader
time	pelvis_tilt	pelvis_list	pelvis_rotation	pelvis_tx	pelvis_ty	pelvis_tz	hip_flexion_r	hip_adduction_r	hip_rotation_r	knee_angle_r	knee_vv_r	knee_rot_r	ankle_angle_r	subtalar_angle_r	mtp_angle_r	hip_flexion_l	hip_adduction_l	hip_rotation_l	knee_angle_l	knee_vv_l	knee_rot_l	ankle_angle_l	subtalar_angle_l	mtp_angle_l	lumbar_extension	lumbar_bending	lumbar_rotation	arm_flex_r	arm_add_r	arm_rot_r	elbow_flex_r	pro_sup_r	wrist_flex_r	wrist_dev_r	arm_flex_l	arm_add_l	arm_rot_l	elbow_flex_l	pro_sup_l	wrist_flex_l	wrist_dev_l
        7.2100000000	        9.0522966000	       -1.2361222900	       -4.0628384700	        0.0560989600	        0.8962738600	       -0.0069609300	      -18.6654149700	        2.4976518600	        2.8500045200	      -10.5461701600	        0.0000000000	        0.0000000000	       18.1990624300	        0.0000000000	        0.0000000000	       11.3519444700	       -1.4730751900	       -7.0743419000	       -3.6550925900	        0.0000000000	        0.0000000000	       -6.0312434200	        0.0000000000	        0.0000000000	      -24.9074989700	       -2.6229467700	        8.7922504500	       26.6518800100	      -22.5526583900	       20.6223475500	       32.5979542600	       86.5166270600	        0.0000000000	        0.0000000000	       -3.3587366900	       -9.7604525800	       40.6661225400	        1.3310262800	       85.9436692700	        0.0000000000	        0.0000000000	
        7.2200000000	        9.3602382700	       -0.9378834000	       -3.8573774900	        0.0574844000	        0.8951927600	       -0.0087513100	      -19.6049425200	        2.0662277500	        2.4498275100	      -10.6953239000	        0.0000000000	        0.0000000000	       18.3059608600	        0.0000000000	        0.0000000000	       11.3106575800	       -1.0158640500	       -7.2086550700	       -4.9220870900	        0.0000000000	        0.0000000000	       -7.0676528000	        0.0000000000	        0.0000000000	      -25.1351238400	       -2.8571255200	        8.3229653400	       26.0197640900	      -22.1777682200	       20.8749363500	       31.6698833100	       86.5166270600	        0.0000000000	        0.0000000000	       -2.7715467600	       -9.9193488600	       41.1111155400	        1.3726060500	       85.9436692700	        0.0000000000	        0.0000000000	
        7.2300000000	        9.6783141300	       -0.5436193600	       -3.5858910600	        0.0589154400	        0.8943982500	       -0.0108024400	      -20.4999970700	        1.5570578900	        1.9303333400	      -10.9470304500	        0.0000000000	        0.0000000000	       18.3043128600	        0.0000000000	        0.0000000000	       11.2627262600	       -0.4399770500	       -7.2555375100	       -6.0579250400	        0.0000000000	        0.0000000000	       -8.1868085900	        0.0000000000	        0.0000000000	      -25.3807600600	       -3.1715143100	        7.7804682900	       25.3565276700	      -21.7444963800	       21.0897131800	       30.6913176300	       86.5166270600	        0.0000000000	        0.0000000000	       -2.1126657400	      -10.1045633900	       41.5825206400	        1.4284216000	       85.9436692700	        0.0000000000	        0.0000000000	
        7.2400000000	        9.9752638700	       -0.0514758400	       -3.2653534800	        0.0602569100	        0.8938858200	       -0.0129907300	      -21.2942501900	        0.9778934900	        1.3200446200	      -11.3524079700	        0.0000000000	        0.0000000000	       18.1909090200	        0.0000000000	        0.0000000000	       11.1949144800	        0.2474220100	       -7.2322299800	       -7.1328735400	        0.0000000000	        0.0000000000	       -9.2056338800	        0.0000000000	        0.0000000000	      -25.6350184600	       -3.5653786200	        7.1738820900	       24.6512549100	      -21.2422756600	       21.2166146100	       29.6950958200	       86.5166270600	        0.0000000000	        0.0000000000	       -1.3788073300	      -10.3139070700	       42.0756564400	        1.4954354600	       85.9436692700	        0.0000000000	        0.0000000000	
        7.2500000000	       10.2366305000	        0.5202050300	       -2.9133797300	        0.0615271600	        0.8936773300	       -0.0152142100	      -21.9511771500	        0.3491188700	        0.6527267500	      -11.9521553100	        0.0000000000	        0.0000000000	       17.9622941500	        0.0000000000	        0.0000000000	       11.1097950400	        1.0204690100	       -7.1606165600	       -8.2472092900	        0.0000000000	        0.0000000000	       -9.9494577900	        0.0000000000	        0.0000000000	      -25.8865007500	       -4.0172054900	        6.5226563800	       23.8811809700	      -20.6815480500	       21.2406026000	       28.6902628800	       86.5166270600	        0.0000000000	        0.0000000000	       -0.5756784400	      -10.5429909400	       42.5769389900	        1.5705728800	       85.9436692700	        0.0000000000	        0.0000000000	
        7.2600000000	       10.4676847000	        1.1340655100	       -2.5425540700	        0.0628280400	        0.8937808200	       -0.0174488800	      -22.4585949900	       -0.2995860500	       -0.0383075300	      -12.7756113400	        0.0000000000	        0.0000000000	       17.6108103500	        0.0000000000	        0.0000000000	       11.0319159100	        1.8363661000	       -7.0591439400	       -9.4790832500	        0.0000000000	        0.0000000000	      -10.2930046000	        0.0000000000	        0.0000000000	      -26.1189772400	       -4.4895452500	        5.8571864600	       23.0275608300	      -20.0862056500	       21.1854337500	       27.6655094100	       86.5166270600	        0.0000000000	        0.0000000000	        0.2849797700	      -10.7837144300	       43.0638889200	        1.6522535500	       85.9436692700	        0.0000000000	        0.0000000000	
        7.2700000000	       10.6753390900	        1.7446679000	       -2.1596984600	        0.0641997500	        0.8941366400	       -0.0197298000	      -22.8145417900	       -0.9355004200	       -0.7245055600	      -13.8422825300	        0.0000000000	        0.0000000000	       17.1196916500	        0.0000000000	        0.0000000000	       10.9825137900	        2.6449528700	       -6.9348751500	      -10.8504365200	        0.0000000000	        0.0000000000	      -10.1871043900	        0.0000000000	        0.0000000000	      -26.3136604600	       -4.9379785400	        5.2125554200	       22.0861549200	      -19.4840442200	       21.1055044000	       26.5982961500	       86.5166270600	        0.0000000000	        0.0000000000	        1.1917829500	      -11.0245407200	       43.5068670500	        1.7424655200	       85.9436692700	        0.0000000000	        0.0000000000	
        7.2800000000	       10.8559699400	        2.3112492500	       -1.7695018000	        0.0656148700	        0.8946574300	       -0.0220918000	      -23.0075325600	       -1.5319440600	       -1.3834475400	      -15.1668692200	        0.0000000000	        0.0000000000	       16.4586265200	        0.0000000000	        0.0000000000	       10.9541311100	        3.4030795300	       -6.7807234900	      -12.3144906400	        0.0000000000	        0.0000000000	       -9.6642544400	        0.0000000000	        0.0000000000	      -26.4546080700	       -5.3223670400	        4.6201770300	       21.0688078900	      -18.8984521600	       21.0701242400	       25.4650770500	       86.5166270600	        0.0000000000	        0.0000000000	        2.1385143500	      -11.2527440100	       43.8723906400	        1.8483949900	       85.9436692700	        0.0000000000	        0.0000000000	
        7.2900000000	       10.9985206100	        2.8075668300	       -1.3797122700	        0.0670268400	        0.8953074400	       -0.0245355300	      -23.0084706400	       -2.0769240500	       -1.9967699100	      -16.7665537000	        0.0000000000	        0.0000000000	       15.5815121200	        0.0000000000	        0.0000000000	       10.9081808500	        4.0861627500	       -6.5800096500	      -13.7627966600	        0.0000000000	        0.0000000000	       -8.8236268400	        0.0000000000	        0.0000000000	      -26.5332050200	       -5.6174494700	        4.1023487300	       19.9986707500	      -18.3432907700	       21.1460697200	       24.2495231500	       86.5166270600	        0.0000000000	        0.0000000000	        3.1239228600	      -11.4577254100	       44.1274915300	        1.9827031800	       85.9436692700	        0.0000000000	        0.0000000000	
        7.3000000000	       11.0922759800	        3.2261991500	       -1.0042819700	        0.0683835900	        0.8961136900	       -0.0270479900	      -22.7778435400	       -2.5774258300	       -2.5454114800	      -18.6644890700	        0.0000000000	        0.0000000000	       14.4280182900	        0.0000000000	        0.0000000000	       10.7914329800	        4.6919738800	       -6.3160919200	      -15.0512489900	        0.0000000000	        0.0000000000	       -7.8023025200	        0.0000000000	        0.0000000000	      -26.5491288400	       -5.8193517700	        3.6708665300	       18.9032832100	      -17.8219539200	       21.3836543700	       22.9470795000	       86.5166270600	        0.0000000000	        0.0000000000	        4.1476395900	      -11.6340530700	       44.2443013600	        2.1622934500	       85.9436692700	        0.0000000000	        0.0000000000	
        7.3100000000	       11.1316680400	        3.5760307800	       -0.6631956800	        0.0696323300	        0.8971057700	       -0.0296096200	      -22.2787606600	       -3.0567445500	       -3.0045292400	      -20.8832867800	        0.0000000000	        0.0000000000	       12.9302756100	        0.0000000000	        0.0000000000	       10.5574625000	        5.2377831300	       -5.9822597200	      -16.0392018100	        0.0000000000	        0.0000000000	       -6.7420831700	        0.0000000000	        0.0000000000	      -26.5075374600	       -5.9458022100	        3.3280155000	       17.8082685800	      -17.3299532800	       21.8094349500	       21.5654443000	       86.5166270600	        0.0000000000	        0.0000000000	        5.2056420800	      -11.7831293400	       44.2039673600	        2.4060403900	       85.9436692700	        0.0000000000	        0.0000000000	
